{
    "asset" : {
        "generator" : "Khronos glTF Blender I/O v1.3.48",
        "version" : "2.0"
    },
    "scene" : 0,
    "scenes" : [
        {
            "extras" : {
                "glTF2ExportSettings" : {
                    "export_apply" : 1,
                    "export_cameras" : 1,
                    "export_extras" : 1,
                    "export_format" : "GLTF_SEPARATE",
                    "export_lights" : 1,
                    "export_tangents" : 1,
                    "export_texture_dir" : "text"
                }
            },
            "name" : "Scene",
            "nodes" : [
                0,
                1,
                2,
                3,
                4,
                6
            ]
        }
    ],
    "nodes" : [
        {
            "mesh" : 0,
            "name" : "Plane",
            "scale" : [
                13.997398376464844,
                13.997398376464844,
                13.997398376464844
            ],
            "translation" : [
                0,
                -1,
                0
            ]
        },
        {
            "mesh" : 1,
            "name" : "Jail.1",
            "scale" : [
                1,
                1,
                2.1087422370910645
            ],
            "translation" : [
                0.7111346125602722,
                0,
                -10.971792221069336
            ]
        },
        {
            "mesh" : 2,
            "name" : "Jail.2",
            "rotation" : [
                0,
                -0.4002913534641266,
                0,
                0.9163879156112671
            ],
            "scale" : [
                1,
                1,
                2.1087422370910645
            ],
            "translation" : [
                -7.920010089874268,
                0,
                9.070016860961914
            ]
        },
        {
            "mesh" : 3,
            "name" : "Jail.3",
            "rotation" : [
                0,
                -0.9239901900291443,
                0,
                0.3824162185192108
            ],
            "scale" : [
                1,
                1,
                2.1087422370910645
            ],
            "translation" : [
                8.025663375854492,
                0,
                9.508888244628906
            ]
        },
        {
            "mesh" : 4,
            "name" : "Memil",
            "rotation" : [
                0.7071068286895752,
                0,
                0,
                0.7071067094802856
            ],
            "scale" : [
                0.4961831867694855,
                0.4961831867694855,
                0.4961831867694855
            ],
            "translation" : [
                1.220649242401123,
                -0.1496463119983673,
                -0.5744808316230774
            ]
        },
        {
            "camera" : 0,
            "name" : "Camera_Orientation",
            "rotation" : [
                -0.7071067690849304,
                0,
                0,
                0.7071067690849304
            ]
        },
        {
            "children" : [
                5
            ],
            "name" : "Camera",
            "rotation" : [
                0.006313765421509743,
                -0.7860597372055054,
                0.6180659532546997,
                0.008046862669289112
            ],
            "translation" : [
                1.0840967893600464,
                1.0132652521133423,
                -5.342466831207275
            ]
        }
    ],
    "cameras" : [
        {
            "name" : "Camera",
            "perspective" : {
                "aspectRatio" : 1.7777777777777777,
                "yfov" : 0.39959652046304894,
                "zfar" : 1000,
                "znear" : 0.10000000149011612
            },
            "type" : "perspective"
        }
    ],
    "materials" : [
        {
            "doubleSided" : true,
            "emissiveFactor" : [
                0,
                0,
                0
            ],
            "name" : "Grass",
            "pbrMetallicRoughness" : {
                "baseColorFactor" : [
                    0.019655469805002213,
                    0.08774468302726746,
                    0.012445304542779922,
                    1
                ],
                "metallicFactor" : 0,
                "roughnessFactor" : 0.5
            }
        },
        {
            "doubleSided" : true,
            "emissiveFactor" : [
                0,
                0,
                0
            ],
            "name" : "Bush",
            "pbrMetallicRoughness" : {
                "baseColorFactor" : [
                    0.055965494364500046,
                    0.37290093302726746,
                    0.0013452130369842052,
                    1
                ],
                "metallicFactor" : 0,
                "roughnessFactor" : 0.4000000059604645
            }
        },
        {
            "doubleSided" : true,
            "emissiveFactor" : [
                0,
                0,
                0
            ],
            "name" : "Stone",
            "pbrMetallicRoughness" : {
                "baseColorFactor" : [
                    0.0817611888051033,
                    0.0817611888051033,
                    0.0817611888051033,
                    1
                ],
                "metallicFactor" : 0,
                "roughnessFactor" : 0.5
            }
        },
        {
            "doubleSided" : true,
            "emissiveFactor" : [
                0,
                0,
                0
            ],
            "name" : "Material",
            "pbrMetallicRoughness" : {
                "baseColorTexture" : {
                    "index" : 0,
                    "texCoord" : 0
                },
                "metallicFactor" : 0,
                "roughnessFactor" : 0.5
            }
        },
        {
            "doubleSided" : true,
            "emissiveFactor" : [
                0,
                0,
                0
            ],
            "name" : "Material.001",
            "pbrMetallicRoughness" : {
                "baseColorFactor" : [
                    0.1477964222431183,
                    0.1531691700220108,
                    0.1425352245569229,
                    1
                ],
                "metallicFactor" : 0,
                "roughnessFactor" : 0.5
            }
        },
        {
            "doubleSided" : true,
            "emissiveFactor" : [
                0,
                0,
                0
            ],
            "name" : "Material.003",
            "pbrMetallicRoughness" : {
                "baseColorFactor" : [
                    0,
                    0,
                    0,
                    1
                ],
                "metallicFactor" : 0,
                "roughnessFactor" : 0.5
            }
        },
        {
            "doubleSided" : true,
            "emissiveFactor" : [
                0,
                0,
                0
            ],
            "name" : "Material.002",
            "pbrMetallicRoughness" : {
                "baseColorFactor" : [
                    1,
                    0.06205226853489876,
                    0.052911560982465744,
                    1
                ],
                "metallicFactor" : 0,
                "roughnessFactor" : 0.5
            }
        }
    ],
    "meshes" : [
        {
            "name" : "Plane",
            "primitives" : [
                {
                    "attributes" : {
                        "POSITION" : 0,
                        "NORMAL" : 1,
                        "TANGENT" : 2,
                        "TEXCOORD_0" : 3
                    },
                    "indices" : 4,
                    "material" : 0
                },
                {
                    "attributes" : {
                        "POSITION" : 5,
                        "NORMAL" : 6,
                        "TANGENT" : 7,
                        "TEXCOORD_0" : 8
                    },
                    "indices" : 9,
                    "material" : 1
                },
                {
                    "attributes" : {
                        "POSITION" : 10,
                        "NORMAL" : 11,
                        "TANGENT" : 12,
                        "TEXCOORD_0" : 13
                    },
                    "indices" : 14,
                    "material" : 2
                }
            ]
        },
        {
            "name" : "Cube",
            "primitives" : [
                {
                    "attributes" : {
                        "POSITION" : 15,
                        "NORMAL" : 16,
                        "TANGENT" : 17,
                        "TEXCOORD_0" : 18
                    },
                    "indices" : 19,
                    "material" : 3
                }
            ]
        },
        {
            "name" : "Cube.005",
            "primitives" : [
                {
                    "attributes" : {
                        "POSITION" : 20,
                        "NORMAL" : 21,
                        "TANGENT" : 22,
                        "TEXCOORD_0" : 23
                    },
                    "indices" : 19,
                    "material" : 3
                }
            ]
        },
        {
            "name" : "Cube.006",
            "primitives" : [
                {
                    "attributes" : {
                        "POSITION" : 24,
                        "NORMAL" : 25,
                        "TANGENT" : 26,
                        "TEXCOORD_0" : 27
                    },
                    "indices" : 19,
                    "material" : 3
                }
            ]
        },
        {
            "name" : "Roundcube",
            "primitives" : [
                {
                    "attributes" : {
                        "POSITION" : 28,
                        "NORMAL" : 29,
                        "TANGENT" : 30,
                        "TEXCOORD_0" : 31
                    },
                    "indices" : 32,
                    "material" : 4
                },
                {
                    "attributes" : {
                        "POSITION" : 33,
                        "NORMAL" : 34,
                        "TANGENT" : 35,
                        "TEXCOORD_0" : 36
                    },
                    "indices" : 37,
                    "material" : 5
                },
                {
                    "attributes" : {
                        "POSITION" : 38,
                        "NORMAL" : 39,
                        "TANGENT" : 40,
                        "TEXCOORD_0" : 41
                    },
                    "indices" : 42,
                    "material" : 6
                }
            ]
        }
    ],
    "textures" : [
        {
            "source" : 0
        }
    ],
    "images" : [
        {
            "mimeType" : "image/png",
            "name" : "grass",
            "uri" : "text/grass.png"
        }
    ],
    "accessors" : [
        {
            "bufferView" : 0,
            "componentType" : 5126,
            "count" : 4,
            "max" : [
                1,
                0,
                1
            ],
            "min" : [
                -1,
                0,
                -1
            ],
            "type" : "VEC3"
        },
        {
            "bufferView" : 1,
            "componentType" : 5126,
            "count" : 4,
            "type" : "VEC3"
        },
        {
            "bufferView" : 2,
            "componentType" : 5126,
            "count" : 4,
            "type" : "VEC4"
        },
        {
            "bufferView" : 3,
            "componentType" : 5126,
            "count" : 4,
            "type" : "VEC2"
        },
        {
            "bufferView" : 4,
            "componentType" : 5123,
            "count" : 6,
            "type" : "SCALAR"
        },
        {
            "bufferView" : 5,
            "componentType" : 5126,
            "count" : 96,
            "max" : [
                1.0747636556625366,
                0.24269245564937592,
                1.1307495832443237
            ],
            "min" : [
                -1.1165688037872314,
                -0.02530612051486969,
                -1.1267741918563843
            ],
            "type" : "VEC3"
        },
        {
            "bufferView" : 6,
            "componentType" : 5126,
            "count" : 96,
            "type" : "VEC3"
        },
        {
            "bufferView" : 7,
            "componentType" : 5126,
            "count" : 96,
            "type" : "VEC4"
        },
        {
            "bufferView" : 8,
            "componentType" : 5126,
            "count" : 96,
            "type" : "VEC2"
        },
        {
            "bufferView" : 9,
            "componentType" : 5123,
            "count" : 144,
            "type" : "SCALAR"
        },
        {
            "bufferView" : 10,
            "componentType" : 5126,
            "count" : 720,
            "max" : [
                0.6878488063812256,
                0.16484704613685608,
                0.9055821299552917
            ],
            "min" : [
                -0.7984398603439331,
                -0.14061570167541504,
                -0.9375165700912476
            ],
            "type" : "VEC3"
        },
        {
            "bufferView" : 11,
            "componentType" : 5126,
            "count" : 720,
            "type" : "VEC3"
        },
        {
            "bufferView" : 12,
            "componentType" : 5126,
            "count" : 720,
            "type" : "VEC4"
        },
        {
            "bufferView" : 13,
            "componentType" : 5126,
            "count" : 720,
            "type" : "VEC2"
        },
        {
            "bufferView" : 14,
            "componentType" : 5123,
            "count" : 720,
            "type" : "SCALAR"
        },
        {
            "bufferView" : 15,
            "componentType" : 5126,
            "count" : 24,
            "max" : [
                1,
                1,
                1
            ],
            "min" : [
                -1,
                -1,
                -1
            ],
            "type" : "VEC3"
        },
        {
            "bufferView" : 16,
            "componentType" : 5126,
            "count" : 24,
            "type" : "VEC3"
        },
        {
            "bufferView" : 17,
            "componentType" : 5126,
            "count" : 24,
            "type" : "VEC4"
        },
        {
            "bufferView" : 18,
            "componentType" : 5126,
            "count" : 24,
            "type" : "VEC2"
        },
        {
            "bufferView" : 19,
            "componentType" : 5123,
            "count" : 36,
            "type" : "SCALAR"
        },
        {
            "bufferView" : 20,
            "componentType" : 5126,
            "count" : 24,
            "max" : [
                1,
                1,
                1
            ],
            "min" : [
                -1,
                -1,
                -1
            ],
            "type" : "VEC3"
        },
        {
            "bufferView" : 21,
            "componentType" : 5126,
            "count" : 24,
            "type" : "VEC3"
        },
        {
            "bufferView" : 22,
            "componentType" : 5126,
            "count" : 24,
            "type" : "VEC4"
        },
        {
            "bufferView" : 23,
            "componentType" : 5126,
            "count" : 24,
            "type" : "VEC2"
        },
        {
            "bufferView" : 24,
            "componentType" : 5126,
            "count" : 24,
            "max" : [
                1,
                1,
                1
            ],
            "min" : [
                -1,
                -1,
                -1
            ],
            "type" : "VEC3"
        },
        {
            "bufferView" : 25,
            "componentType" : 5126,
            "count" : 24,
            "type" : "VEC3"
        },
        {
            "bufferView" : 26,
            "componentType" : 5126,
            "count" : 24,
            "type" : "VEC4"
        },
        {
            "bufferView" : 27,
            "componentType" : 5126,
            "count" : 24,
            "type" : "VEC2"
        },
        {
            "bufferView" : 28,
            "componentType" : 5126,
            "count" : 17396,
            "max" : [
                1.051923394203186,
                0.3692152202129364,
                1.7587095499038696
            ],
            "min" : [
                -1.0475436449050903,
                -0.43008479475975037,
                -1.1196004152297974
            ],
            "type" : "VEC3"
        },
        {
            "bufferView" : 29,
            "componentType" : 5126,
            "count" : 17396,
            "type" : "VEC3"
        },
        {
            "bufferView" : 30,
            "componentType" : 5126,
            "count" : 17396,
            "type" : "VEC4"
        },
        {
            "bufferView" : 31,
            "componentType" : 5126,
            "count" : 17396,
            "type" : "VEC2"
        },
        {
            "bufferView" : 32,
            "componentType" : 5123,
            "count" : 100032,
            "type" : "SCALAR"
        },
        {
            "bufferView" : 33,
            "componentType" : 5126,
            "count" : 2403,
            "max" : [
                0.2061823606491089,
                0.3961262106895447,
                -0.394106388092041
            ],
            "min" : [
                -0.2655075788497925,
                0.19109518826007843,
                -0.6761183738708496
            ],
            "type" : "VEC3"
        },
        {
            "bufferView" : 34,
            "componentType" : 5126,
            "count" : 2403,
            "type" : "VEC3"
        },
        {
            "bufferView" : 35,
            "componentType" : 5126,
            "count" : 2403,
            "type" : "VEC4"
        },
        {
            "bufferView" : 36,
            "componentType" : 5126,
            "count" : 2403,
            "type" : "VEC2"
        },
        {
            "bufferView" : 37,
            "componentType" : 5123,
            "count" : 13824,
            "type" : "SCALAR"
        },
        {
            "bufferView" : 38,
            "componentType" : 5126,
            "count" : 6090,
            "max" : [
                0.5680303573608398,
                0.45999622344970703,
                0.7055546045303345
            ],
            "min" : [
                -0.5636496543884277,
                -0.5016428232192993,
                -0.1788514256477356
            ],
            "type" : "VEC3"
        },
        {
            "bufferView" : 39,
            "componentType" : 5126,
            "count" : 6090,
            "type" : "VEC3"
        },
        {
            "bufferView" : 40,
            "componentType" : 5126,
            "count" : 6090,
            "type" : "VEC4"
        },
        {
            "bufferView" : 41,
            "componentType" : 5126,
            "count" : 6090,
            "type" : "VEC2"
        },
        {
            "bufferView" : 42,
            "componentType" : 5123,
            "count" : 34560,
            "type" : "SCALAR"
        }
    ],
    "bufferViews" : [
        {
            "buffer" : 0,
            "byteLength" : 48,
            "byteOffset" : 0
        },
        {
            "buffer" : 0,
            "byteLength" : 48,
            "byteOffset" : 48
        },
        {
            "buffer" : 0,
            "byteLength" : 64,
            "byteOffset" : 96
        },
        {
            "buffer" : 0,
            "byteLength" : 32,
            "byteOffset" : 160
        },
        {
            "buffer" : 0,
            "byteLength" : 12,
            "byteOffset" : 192
        },
        {
            "buffer" : 0,
            "byteLength" : 1152,
            "byteOffset" : 204
        },
        {
            "buffer" : 0,
            "byteLength" : 1152,
            "byteOffset" : 1356
        },
        {
            "buffer" : 0,
            "byteLength" : 1536,
            "byteOffset" : 2508
        },
        {
            "buffer" : 0,
            "byteLength" : 768,
            "byteOffset" : 4044
        },
        {
            "buffer" : 0,
            "byteLength" : 288,
            "byteOffset" : 4812
        },
        {
            "buffer" : 0,
            "byteLength" : 8640,
            "byteOffset" : 5100
        },
        {
            "buffer" : 0,
            "byteLength" : 8640,
            "byteOffset" : 13740
        },
        {
            "buffer" : 0,
            "byteLength" : 11520,
            "byteOffset" : 22380
        },
        {
            "buffer" : 0,
            "byteLength" : 5760,
            "byteOffset" : 33900
        },
        {
            "buffer" : 0,
            "byteLength" : 1440,
            "byteOffset" : 39660
        },
        {
            "buffer" : 0,
            "byteLength" : 288,
            "byteOffset" : 41100
        },
        {
            "buffer" : 0,
            "byteLength" : 288,
            "byteOffset" : 41388
        },
        {
            "buffer" : 0,
            "byteLength" : 384,
            "byteOffset" : 41676
        },
        {
            "buffer" : 0,
            "byteLength" : 192,
            "byteOffset" : 42060
        },
        {
            "buffer" : 0,
            "byteLength" : 72,
            "byteOffset" : 42252
        },
        {
            "buffer" : 0,
            "byteLength" : 288,
            "byteOffset" : 42324
        },
        {
            "buffer" : 0,
            "byteLength" : 288,
            "byteOffset" : 42612
        },
        {
            "buffer" : 0,
            "byteLength" : 384,
            "byteOffset" : 42900
        },
        {
            "buffer" : 0,
            "byteLength" : 192,
            "byteOffset" : 43284
        },
        {
            "buffer" : 0,
            "byteLength" : 288,
            "byteOffset" : 43476
        },
        {
            "buffer" : 0,
            "byteLength" : 288,
            "byteOffset" : 43764
        },
        {
            "buffer" : 0,
            "byteLength" : 384,
            "byteOffset" : 44052
        },
        {
            "buffer" : 0,
            "byteLength" : 192,
            "byteOffset" : 44436
        },
        {
            "buffer" : 0,
            "byteLength" : 208752,
            "byteOffset" : 44628
        },
        {
            "buffer" : 0,
            "byteLength" : 208752,
            "byteOffset" : 253380
        },
        {
            "buffer" : 0,
            "byteLength" : 278336,
            "byteOffset" : 462132
        },
        {
            "buffer" : 0,
            "byteLength" : 139168,
            "byteOffset" : 740468
        },
        {
            "buffer" : 0,
            "byteLength" : 200064,
            "byteOffset" : 879636
        },
        {
            "buffer" : 0,
            "byteLength" : 28836,
            "byteOffset" : 1079700
        },
        {
            "buffer" : 0,
            "byteLength" : 28836,
            "byteOffset" : 1108536
        },
        {
            "buffer" : 0,
            "byteLength" : 38448,
            "byteOffset" : 1137372
        },
        {
            "buffer" : 0,
            "byteLength" : 19224,
            "byteOffset" : 1175820
        },
        {
            "buffer" : 0,
            "byteLength" : 27648,
            "byteOffset" : 1195044
        },
        {
            "buffer" : 0,
            "byteLength" : 73080,
            "byteOffset" : 1222692
        },
        {
            "buffer" : 0,
            "byteLength" : 73080,
            "byteOffset" : 1295772
        },
        {
            "buffer" : 0,
            "byteLength" : 97440,
            "byteOffset" : 1368852
        },
        {
            "buffer" : 0,
            "byteLength" : 48720,
            "byteOffset" : 1466292
        },
        {
            "buffer" : 0,
            "byteLength" : 69120,
            "byteOffset" : 1515012
        }
    ],
    "buffers" : [
        {
            "byteLength" : 1584132,
            "uri" : "sample_env.bin"
        }
    ]
}
