{
    "asset" : {
        "generator" : "Khronos glTF Blender I/O v1.8.19",
        "version" : "2.0"
    },
    "scene" : 0,
    "scenes" : [
        {
            "name" : "Scene",
            "nodes" : [
                0,
                1,
                2,
                3,
                4,
                5
            ]
        }
    ],
    "nodes" : [
        {
            "mesh" : 0,
            "name" : "Plane",
            "scale" : [
                13.997398376464844,
                13.997398376464844,
                13.997398376464844
            ],
            "translation" : [
                0,
                -1,
                0
            ]
        },
        {
            "mesh" : 1,
            "name" : "Jail.1",
            "scale" : [
                1,
                1,
                2.1087422370910645
            ],
            "translation" : [
                0.7111346125602722,
                0,
                -10.971792221069336
            ]
        },
        {
            "mesh" : 2,
            "name" : "Jail.2",
            "rotation" : [
                0,
                -0.4002913534641266,
                0,
                0.9163879156112671
            ],
            "scale" : [
                1,
                1,
                2.1087422370910645
            ],
            "translation" : [
                -7.920010089874268,
                0,
                9.070016860961914
            ]
        },
        {
            "mesh" : 3,
            "name" : "Jail.3",
            "rotation" : [
                0,
                -0.9239901900291443,
                0,
                0.3824162185192108
            ],
            "scale" : [
                1,
                1,
                2.1087422370910645
            ],
            "translation" : [
                8.025663375854492,
                0,
                9.508888244628906
            ]
        },
        {
            "mesh" : 4,
            "name" : "Memil"
        },
        {
            "name" : "Camera.001",
            "rotation" : [
                0.006313765421509743,
                -0.7860597372055054,
                0.6180659532546997,
                0.008046862669289112
            ],
            "translation" : [
                1.0840967893600464,
                1.0132652521133423,
                -5.342466831207275
            ]
        }
    ],
    "materials" : [
        {
            "doubleSided" : true,
            "name" : "Grass",
            "pbrMetallicRoughness" : {
                "baseColorFactor" : [
                    0.019655469805002213,
                    0.08774468302726746,
                    0.012445304542779922,
                    1
                ],
                "metallicFactor" : 0,
                "roughnessFactor" : 0.5
            }
        },
        {
            "doubleSided" : true,
            "name" : "Bush",
            "pbrMetallicRoughness" : {
                "baseColorFactor" : [
                    0.055965494364500046,
                    0.37290093302726746,
                    0.0013452130369842052,
                    1
                ],
                "metallicFactor" : 0,
                "roughnessFactor" : 0.4000000059604645
            }
        },
        {
            "doubleSided" : true,
            "name" : "Stone",
            "pbrMetallicRoughness" : {
                "baseColorFactor" : [
                    0.0817611888051033,
                    0.0817611888051033,
                    0.0817611888051033,
                    1
                ],
                "metallicFactor" : 0,
                "roughnessFactor" : 0.5
            }
        },
        {
            "doubleSided" : true,
            "name" : "Material.001",
            "pbrMetallicRoughness" : {
                "baseColorTexture" : {
                    "index" : 0
                },
                "metallicFactor" : 0,
                "roughnessFactor" : 0.5
            }
        },
        {
            "doubleSided" : true,
            "name" : "Material.002",
            "pbrMetallicRoughness" : {
                "baseColorFactor" : [
                    0.1477964222431183,
                    0.1531691700220108,
                    0.1425352245569229,
                    1
                ],
                "metallicFactor" : 0,
                "roughnessFactor" : 0.5
            }
        },
        {
            "doubleSided" : true,
            "name" : "Material.003",
            "pbrMetallicRoughness" : {
                "baseColorFactor" : [
                    0,
                    0,
                    0,
                    1
                ],
                "metallicFactor" : 0,
                "roughnessFactor" : 0.5
            }
        },
        {
            "doubleSided" : true,
            "name" : "Material.004",
            "pbrMetallicRoughness" : {
                "baseColorFactor" : [
                    1,
                    0.06205226853489876,
                    0.052911560982465744,
                    1
                ],
                "metallicFactor" : 0,
                "roughnessFactor" : 0.5
            }
        }
    ],
    "meshes" : [
        {
            "name" : "Plane",
            "primitives" : [
                {
                    "attributes" : {
                        "POSITION" : 0,
                        "NORMAL" : 1,
                        "TEXCOORD_0" : 2
                    },
                    "indices" : 3,
                    "material" : 0
                },
                {
                    "attributes" : {
                        "POSITION" : 4,
                        "NORMAL" : 5,
                        "TEXCOORD_0" : 6
                    },
                    "indices" : 7,
                    "material" : 1
                },
                {
                    "attributes" : {
                        "POSITION" : 8,
                        "NORMAL" : 9,
                        "TEXCOORD_0" : 10
                    },
                    "indices" : 11,
                    "material" : 2
                }
            ]
        },
        {
            "name" : "Cube.001",
            "primitives" : [
                {
                    "attributes" : {
                        "POSITION" : 12,
                        "NORMAL" : 13,
                        "TEXCOORD_0" : 14
                    },
                    "indices" : 15,
                    "material" : 3
                }
            ]
        },
        {
            "name" : "Cube.005",
            "primitives" : [
                {
                    "attributes" : {
                        "POSITION" : 16,
                        "NORMAL" : 17,
                        "TEXCOORD_0" : 18
                    },
                    "indices" : 15,
                    "material" : 3
                }
            ]
        },
        {
            "name" : "Cube.006",
            "primitives" : [
                {
                    "attributes" : {
                        "POSITION" : 19,
                        "NORMAL" : 20,
                        "TEXCOORD_0" : 21
                    },
                    "indices" : 15,
                    "material" : 3
                }
            ]
        },
        {
            "name" : "Roundcube",
            "primitives" : [
                {
                    "attributes" : {
                        "POSITION" : 22,
                        "NORMAL" : 23,
                        "TEXCOORD_0" : 24
                    },
                    "indices" : 25,
                    "material" : 4
                },
                {
                    "attributes" : {
                        "POSITION" : 26,
                        "NORMAL" : 27,
                        "TEXCOORD_0" : 28
                    },
                    "indices" : 29,
                    "material" : 5
                },
                {
                    "attributes" : {
                        "POSITION" : 30,
                        "NORMAL" : 31,
                        "TEXCOORD_0" : 32
                    },
                    "indices" : 33,
                    "material" : 6
                }
            ]
        }
    ],
    "textures" : [
        {
            "sampler" : 0,
            "source" : 0
        }
    ],
    "images" : [
        {
            "mimeType" : "image/png",
            "name" : "grass",
            "uri" : "grass.png"
        }
    ],
    "accessors" : [
        {
            "bufferView" : 0,
            "componentType" : 5126,
            "count" : 4,
            "max" : [
                1,
                0,
                1
            ],
            "min" : [
                -1,
                0,
                -1
            ],
            "type" : "VEC3"
        },
        {
            "bufferView" : 1,
            "componentType" : 5126,
            "count" : 4,
            "type" : "VEC3"
        },
        {
            "bufferView" : 2,
            "componentType" : 5126,
            "count" : 4,
            "type" : "VEC2"
        },
        {
            "bufferView" : 3,
            "componentType" : 5123,
            "count" : 6,
            "type" : "SCALAR"
        },
        {
            "bufferView" : 4,
            "componentType" : 5126,
            "count" : 104,
            "max" : [
                1.0747636556625366,
                0.24269245564937592,
                1.1307495832443237
            ],
            "min" : [
                -1.1165688037872314,
                -0.02530612051486969,
                -1.1267741918563843
            ],
            "type" : "VEC3"
        },
        {
            "bufferView" : 5,
            "componentType" : 5126,
            "count" : 104,
            "type" : "VEC3"
        },
        {
            "bufferView" : 6,
            "componentType" : 5126,
            "count" : 104,
            "type" : "VEC2"
        },
        {
            "bufferView" : 7,
            "componentType" : 5123,
            "count" : 144,
            "type" : "SCALAR"
        },
        {
            "bufferView" : 8,
            "componentType" : 5126,
            "count" : 720,
            "max" : [
                0.6878488063812256,
                0.16484704613685608,
                0.9055821299552917
            ],
            "min" : [
                -0.7984398603439331,
                -0.14061570167541504,
                -0.9375165700912476
            ],
            "type" : "VEC3"
        },
        {
            "bufferView" : 9,
            "componentType" : 5126,
            "count" : 720,
            "type" : "VEC3"
        },
        {
            "bufferView" : 10,
            "componentType" : 5126,
            "count" : 720,
            "type" : "VEC2"
        },
        {
            "bufferView" : 11,
            "componentType" : 5123,
            "count" : 720,
            "type" : "SCALAR"
        },
        {
            "bufferView" : 12,
            "componentType" : 5126,
            "count" : 24,
            "max" : [
                1,
                1,
                1
            ],
            "min" : [
                -1,
                -1,
                -1
            ],
            "type" : "VEC3"
        },
        {
            "bufferView" : 13,
            "componentType" : 5126,
            "count" : 24,
            "type" : "VEC3"
        },
        {
            "bufferView" : 14,
            "componentType" : 5126,
            "count" : 24,
            "type" : "VEC2"
        },
        {
            "bufferView" : 15,
            "componentType" : 5123,
            "count" : 36,
            "type" : "SCALAR"
        },
        {
            "bufferView" : 16,
            "componentType" : 5126,
            "count" : 24,
            "max" : [
                1,
                1,
                1
            ],
            "min" : [
                -1,
                -1,
                -1
            ],
            "type" : "VEC3"
        },
        {
            "bufferView" : 17,
            "componentType" : 5126,
            "count" : 24,
            "type" : "VEC3"
        },
        {
            "bufferView" : 18,
            "componentType" : 5126,
            "count" : 24,
            "type" : "VEC2"
        },
        {
            "bufferView" : 19,
            "componentType" : 5126,
            "count" : 24,
            "max" : [
                1,
                1,
                1
            ],
            "min" : [
                -1,
                -1,
                -1
            ],
            "type" : "VEC3"
        },
        {
            "bufferView" : 20,
            "componentType" : 5126,
            "count" : 24,
            "type" : "VEC3"
        },
        {
            "bufferView" : 21,
            "componentType" : 5126,
            "count" : 24,
            "type" : "VEC2"
        },
        {
            "bufferView" : 22,
            "componentType" : 5126,
            "count" : 17396,
            "max" : [
                1.4340500831604004,
                0.4058806002140045,
                -0.05253410339355469
            ],
            "min" : [
                1.0374507904052734,
                -1.02228844165802,
                -1.0942543745040894
            ],
            "type" : "VEC3"
        },
        {
            "bufferView" : 23,
            "componentType" : 5126,
            "count" : 17396,
            "type" : "VEC3"
        },
        {
            "bufferView" : 24,
            "componentType" : 5126,
            "count" : 17396,
            "type" : "VEC2"
        },
        {
            "bufferView" : 25,
            "componentType" : 5123,
            "count" : 100032,
            "type" : "SCALAR"
        },
        {
            "bufferView" : 26,
            "componentType" : 5126,
            "count" : 2403,
            "max" : [
                1.1258310079574585,
                0.18583226203918457,
                -0.47217661142349243
            ],
            "min" : [
                1.0240980386734009,
                0.045902639627456665,
                -0.7062212228775024
            ],
            "type" : "VEC3"
        },
        {
            "bufferView" : 27,
            "componentType" : 5126,
            "count" : 2403,
            "type" : "VEC3"
        },
        {
            "bufferView" : 28,
            "componentType" : 5126,
            "count" : 2403,
            "type" : "VEC2"
        },
        {
            "bufferView" : 29,
            "componentType" : 5123,
            "count" : 13824,
            "type" : "SCALAR"
        },
        {
            "bufferView" : 30,
            "componentType" : 5126,
            "count" : 6090,
            "max" : [
                1.4695559740066528,
                -0.060903243720531464,
                -0.29263371229171753
            ],
            "min" : [
                0.9924068450927734,
                -0.49973064661026,
                -0.8541543483734131
            ],
            "type" : "VEC3"
        },
        {
            "bufferView" : 31,
            "componentType" : 5126,
            "count" : 6090,
            "type" : "VEC3"
        },
        {
            "bufferView" : 32,
            "componentType" : 5126,
            "count" : 6090,
            "type" : "VEC2"
        },
        {
            "bufferView" : 33,
            "componentType" : 5123,
            "count" : 34560,
            "type" : "SCALAR"
        }
    ],
    "bufferViews" : [
        {
            "buffer" : 0,
            "byteLength" : 48,
            "byteOffset" : 0
        },
        {
            "buffer" : 0,
            "byteLength" : 48,
            "byteOffset" : 48
        },
        {
            "buffer" : 0,
            "byteLength" : 32,
            "byteOffset" : 96
        },
        {
            "buffer" : 0,
            "byteLength" : 12,
            "byteOffset" : 128
        },
        {
            "buffer" : 0,
            "byteLength" : 1248,
            "byteOffset" : 140
        },
        {
            "buffer" : 0,
            "byteLength" : 1248,
            "byteOffset" : 1388
        },
        {
            "buffer" : 0,
            "byteLength" : 832,
            "byteOffset" : 2636
        },
        {
            "buffer" : 0,
            "byteLength" : 288,
            "byteOffset" : 3468
        },
        {
            "buffer" : 0,
            "byteLength" : 8640,
            "byteOffset" : 3756
        },
        {
            "buffer" : 0,
            "byteLength" : 8640,
            "byteOffset" : 12396
        },
        {
            "buffer" : 0,
            "byteLength" : 5760,
            "byteOffset" : 21036
        },
        {
            "buffer" : 0,
            "byteLength" : 1440,
            "byteOffset" : 26796
        },
        {
            "buffer" : 0,
            "byteLength" : 288,
            "byteOffset" : 28236
        },
        {
            "buffer" : 0,
            "byteLength" : 288,
            "byteOffset" : 28524
        },
        {
            "buffer" : 0,
            "byteLength" : 192,
            "byteOffset" : 28812
        },
        {
            "buffer" : 0,
            "byteLength" : 72,
            "byteOffset" : 29004
        },
        {
            "buffer" : 0,
            "byteLength" : 288,
            "byteOffset" : 29076
        },
        {
            "buffer" : 0,
            "byteLength" : 288,
            "byteOffset" : 29364
        },
        {
            "buffer" : 0,
            "byteLength" : 192,
            "byteOffset" : 29652
        },
        {
            "buffer" : 0,
            "byteLength" : 288,
            "byteOffset" : 29844
        },
        {
            "buffer" : 0,
            "byteLength" : 288,
            "byteOffset" : 30132
        },
        {
            "buffer" : 0,
            "byteLength" : 192,
            "byteOffset" : 30420
        },
        {
            "buffer" : 0,
            "byteLength" : 208752,
            "byteOffset" : 30612
        },
        {
            "buffer" : 0,
            "byteLength" : 208752,
            "byteOffset" : 239364
        },
        {
            "buffer" : 0,
            "byteLength" : 139168,
            "byteOffset" : 448116
        },
        {
            "buffer" : 0,
            "byteLength" : 200064,
            "byteOffset" : 587284
        },
        {
            "buffer" : 0,
            "byteLength" : 28836,
            "byteOffset" : 787348
        },
        {
            "buffer" : 0,
            "byteLength" : 28836,
            "byteOffset" : 816184
        },
        {
            "buffer" : 0,
            "byteLength" : 19224,
            "byteOffset" : 845020
        },
        {
            "buffer" : 0,
            "byteLength" : 27648,
            "byteOffset" : 864244
        },
        {
            "buffer" : 0,
            "byteLength" : 73080,
            "byteOffset" : 891892
        },
        {
            "buffer" : 0,
            "byteLength" : 73080,
            "byteOffset" : 964972
        },
        {
            "buffer" : 0,
            "byteLength" : 48720,
            "byteOffset" : 1038052
        },
        {
            "buffer" : 0,
            "byteLength" : 69120,
            "byteOffset" : 1086772
        }
    ],
    "samplers" : [
        {
            "magFilter" : 9729,
            "minFilter" : 9987
        }
    ],
    "buffers" : [
        {
            "byteLength" : 1155892,
            "uri" : "sample_env.bin"
        }
    ]
}
