{
    "asset" : {
        "generator" : "Khronos glTF Blender I/O v1.8.19",
        "version" : "2.0"
    },
    "scene" : 0,
    "scenes" : [
        {
            "name" : "Scene",
            "nodes" : [
                0,
                1,
                2,
                3,
                4,
                6
            ]
        }
    ],
    "nodes" : [
        {
            "mesh" : 0,
            "name" : "Plane",
            "translation" : [
                0,
                1.076700210571289,
                -1.0080933570861816
            ]
        },
        {
            "mesh" : 1,
            "name" : "Jail.1",
            "scale" : [
                1,
                1,
                2.1087422370910645
            ],
            "translation" : [
                0.7111346125602722,
                1.076700210571289,
                -11.979886054992676
            ]
        },
        {
            "mesh" : 2,
            "name" : "Jail.2",
            "rotation" : [
                0,
                -0.4002913534641266,
                0,
                0.9163879156112671
            ],
            "scale" : [
                1,
                1,
                2.1087422370910645
            ],
            "translation" : [
                -7.920007705688477,
                1.076700210571289,
                8.061923027038574
            ]
        },
        {
            "mesh" : 3,
            "name" : "Jail.3",
            "rotation" : [
                0,
                -0.9239902496337891,
                0,
                0.3824162185192108
            ],
            "scale" : [
                1,
                1,
                2.1087422370910645
            ],
            "translation" : [
                8.02566146850586,
                1.076700210571289,
                8.500794410705566
            ]
        },
        {
            "mesh" : 4,
            "name" : "Memil",
            "translation" : [
                2.353294849395752,
                0.8801518082618713,
                -0.9169132113456726
            ]
        },
        {
            "camera" : 0,
            "name" : "Camera_Orientation",
            "rotation" : [
                -0.7071067690849304,
                0,
                0,
                0.7071067690849304
            ]
        },
        {
            "children" : [
                5
            ],
            "name" : "Camera",
            "rotation" : [
                0,
                0.7071067094802856,
                -0.70710688829422,
                -8.429367426288081e-08
            ],
            "translation" : [
                2.427163600921631,
                0.6612918376922607,
                -3.3766040802001953
            ]
        }
    ],
    "cameras" : [
        {
            "name" : "Camera.003",
            "perspective" : {
                "aspectRatio" : 1.7777777777777777,
                "yfov" : 0.39959652046304894,
                "zfar" : 1000,
                "znear" : 0.10000000149011612
            },
            "type" : "perspective"
        }
    ],
    "materials" : [
        {
            "doubleSided" : true,
            "name" : "Grass.001",
            "pbrMetallicRoughness" : {
                "baseColorTexture" : {
                    "index" : 0
                },
                "metallicFactor" : 0,
                "roughnessFactor" : 0.8282442688941956
            }
        },
        {
            "doubleSided" : true,
            "name" : "Bush.001",
            "pbrMetallicRoughness" : {
                "baseColorTexture" : {
                    "index" : 1
                },
                "metallicFactor" : 0,
                "roughnessFactor" : 0.4000000059604645
            }
        },
        {
            "doubleSided" : true,
            "name" : "Stone.001",
            "pbrMetallicRoughness" : {
                "baseColorTexture" : {
                    "index" : 2
                },
                "metallicFactor" : 0,
                "roughnessFactor" : 0.5
            }
        },
        {
            "doubleSided" : true,
            "name" : "Material.005",
            "pbrMetallicRoughness" : {
                "baseColorTexture" : {
                    "index" : 3
                },
                "metallicFactor" : 0,
                "roughnessFactor" : 0.5
            }
        },
        {
            "doubleSided" : true,
            "name" : "Material.006",
            "pbrMetallicRoughness" : {
                "metallicFactor" : 0,
                "roughnessFactor" : 0.7624434232711792
            }
        },
        {
            "doubleSided" : true,
            "name" : "eyes",
            "pbrMetallicRoughness" : {
                "baseColorFactor" : [
                    0,
                    0,
                    0,
                    1
                ],
                "metallicFactor" : 0,
                "roughnessFactor" : 0.5
            }
        },
        {
            "doubleSided" : true,
            "name" : "clothes",
            "pbrMetallicRoughness" : {
                "baseColorTexture" : {
                    "index" : 4
                },
                "metallicFactor" : 0,
                "roughnessFactor" : 0.5
            }
        }
    ],
    "meshes" : [
        {
            "name" : "Plane.001",
            "primitives" : [
                {
                    "attributes" : {
                        "POSITION" : 0,
                        "NORMAL" : 1,
                        "TEXCOORD_0" : 2
                    },
                    "indices" : 3,
                    "material" : 0
                },
                {
                    "attributes" : {
                        "POSITION" : 4,
                        "NORMAL" : 5,
                        "TEXCOORD_0" : 6
                    },
                    "indices" : 7,
                    "material" : 1
                },
                {
                    "attributes" : {
                        "POSITION" : 8,
                        "NORMAL" : 9,
                        "TEXCOORD_0" : 10
                    },
                    "indices" : 11,
                    "material" : 2
                }
            ]
        },
        {
            "name" : "Cube.002",
            "primitives" : [
                {
                    "attributes" : {
                        "POSITION" : 12,
                        "NORMAL" : 13,
                        "TEXCOORD_0" : 14
                    },
                    "indices" : 15,
                    "material" : 3
                }
            ]
        },
        {
            "name" : "Cube.003",
            "primitives" : [
                {
                    "attributes" : {
                        "POSITION" : 16,
                        "NORMAL" : 17,
                        "TEXCOORD_0" : 18
                    },
                    "indices" : 15,
                    "material" : 3
                }
            ]
        },
        {
            "name" : "Cube.004",
            "primitives" : [
                {
                    "attributes" : {
                        "POSITION" : 19,
                        "NORMAL" : 20,
                        "TEXCOORD_0" : 21
                    },
                    "indices" : 15,
                    "material" : 3
                }
            ]
        },
        {
            "name" : "Roundcube.001",
            "primitives" : [
                {
                    "attributes" : {
                        "POSITION" : 22,
                        "NORMAL" : 23,
                        "TEXCOORD_0" : 24
                    },
                    "indices" : 25,
                    "material" : 4
                },
                {
                    "attributes" : {
                        "POSITION" : 26,
                        "NORMAL" : 27,
                        "TEXCOORD_0" : 28
                    },
                    "indices" : 29,
                    "material" : 5
                },
                {
                    "attributes" : {
                        "POSITION" : 30,
                        "NORMAL" : 31,
                        "TEXCOORD_0" : 32
                    },
                    "indices" : 33,
                    "material" : 6
                }
            ]
        }
    ],
    "textures" : [
        {
            "sampler" : 0,
            "source" : 0
        },
        {
            "sampler" : 0,
            "source" : 1
        },
        {
            "sampler" : 0,
            "source" : 2
        },
        {
            "sampler" : 0,
            "source" : 3
        },
        {
            "sampler" : 0,
            "source" : 4
        }
    ],
    "images" : [
        {
            "mimeType" : "image/jpeg",
            "name" : "grass",
            "uri" : "Textures/grass.jpg"
        },
        {
            "mimeType" : "image/jpeg",
            "name" : "bush",
            "uri" : "Textures/bush.jpg"
        },
        {
            "mimeType" : "image/jpeg",
            "name" : "stone",
            "uri" : "Textures/stone.jpg"
        },
        {
            "mimeType" : "image/jpeg",
            "name" : "jail",
            "uri" : "Textures/jail.jpg"
        },
        {
            "mimeType" : "image/jpeg",
            "name" : "cloth",
            "uri" : "Textures/cloth.jpg"
        }
    ],
    "accessors" : [
        {
            "bufferView" : 0,
            "componentType" : 5126,
            "count" : 4,
            "max" : [
                13.997398376464844,
                -1,
                13.997398376464844
            ],
            "min" : [
                -13.997398376464844,
                -1,
                -13.997398376464844
            ],
            "type" : "VEC3"
        },
        {
            "bufferView" : 1,
            "componentType" : 5126,
            "count" : 4,
            "type" : "VEC3"
        },
        {
            "bufferView" : 2,
            "componentType" : 5126,
            "count" : 4,
            "type" : "VEC2"
        },
        {
            "bufferView" : 3,
            "componentType" : 5123,
            "count" : 6,
            "type" : "SCALAR"
        },
        {
            "bufferView" : 4,
            "componentType" : 5126,
            "count" : 106,
            "max" : [
                15.04389476776123,
                2.3970630168914795,
                15.827552795410156
            ],
            "min" : [
                -15.629058837890625,
                -1.354219913482666,
                -15.771906852722168
            ],
            "type" : "VEC3"
        },
        {
            "bufferView" : 5,
            "componentType" : 5126,
            "count" : 106,
            "type" : "VEC3"
        },
        {
            "bufferView" : 6,
            "componentType" : 5126,
            "count" : 106,
            "type" : "VEC2"
        },
        {
            "bufferView" : 7,
            "componentType" : 5123,
            "count" : 144,
            "type" : "SCALAR"
        },
        {
            "bufferView" : 8,
            "componentType" : 5126,
            "count" : 720,
            "max" : [
                9.628093719482422,
                1.3074297904968262,
                12.675793647766113
            ],
            "min" : [
                -11.176080703735352,
                -2.9682540893554688,
                -13.122793197631836
            ],
            "type" : "VEC3"
        },
        {
            "bufferView" : 9,
            "componentType" : 5126,
            "count" : 720,
            "type" : "VEC3"
        },
        {
            "bufferView" : 10,
            "componentType" : 5126,
            "count" : 720,
            "type" : "VEC2"
        },
        {
            "bufferView" : 11,
            "componentType" : 5123,
            "count" : 720,
            "type" : "SCALAR"
        },
        {
            "bufferView" : 12,
            "componentType" : 5126,
            "count" : 24,
            "max" : [
                1,
                1,
                1
            ],
            "min" : [
                -1,
                -1,
                -1
            ],
            "type" : "VEC3"
        },
        {
            "bufferView" : 13,
            "componentType" : 5126,
            "count" : 24,
            "type" : "VEC3"
        },
        {
            "bufferView" : 14,
            "componentType" : 5126,
            "count" : 24,
            "type" : "VEC2"
        },
        {
            "bufferView" : 15,
            "componentType" : 5123,
            "count" : 36,
            "type" : "SCALAR"
        },
        {
            "bufferView" : 16,
            "componentType" : 5126,
            "count" : 24,
            "max" : [
                1,
                1,
                1
            ],
            "min" : [
                -1,
                -1,
                -1
            ],
            "type" : "VEC3"
        },
        {
            "bufferView" : 17,
            "componentType" : 5126,
            "count" : 24,
            "type" : "VEC3"
        },
        {
            "bufferView" : 18,
            "componentType" : 5126,
            "count" : 24,
            "type" : "VEC2"
        },
        {
            "bufferView" : 19,
            "componentType" : 5126,
            "count" : 24,
            "max" : [
                1,
                1,
                1
            ],
            "min" : [
                -1,
                -1,
                -1
            ],
            "type" : "VEC3"
        },
        {
            "bufferView" : 20,
            "componentType" : 5126,
            "count" : 24,
            "type" : "VEC3"
        },
        {
            "bufferView" : 21,
            "componentType" : 5126,
            "count" : 24,
            "type" : "VEC2"
        },
        {
            "bufferView" : 22,
            "componentType" : 5126,
            "count" : 17385,
            "max" : [
                0.4945366382598877,
                0.5320758819580078,
                0.17436185479164124
            ],
            "min" : [
                -0.49257755279541016,
                -0.821229875087738,
                -0.201447993516922
            ],
            "type" : "VEC3"
        },
        {
            "bufferView" : 23,
            "componentType" : 5126,
            "count" : 17385,
            "type" : "VEC3"
        },
        {
            "bufferView" : 24,
            "componentType" : 5126,
            "count" : 17385,
            "type" : "VEC2"
        },
        {
            "bufferView" : 25,
            "componentType" : 5123,
            "count" : 100032,
            "type" : "SCALAR"
        },
        {
            "bufferView" : 26,
            "componentType" : 5126,
            "count" : 2403,
            "max" : [
                0.09689140319824219,
                0.3235622048377991,
                0.18701469898223877
            ],
            "min" : [
                -0.12488484382629395,
                0.1909675896167755,
                0.09061450511217117
            ],
            "type" : "VEC3"
        },
        {
            "bufferView" : 27,
            "componentType" : 5126,
            "count" : 2403,
            "type" : "VEC3"
        },
        {
            "bufferView" : 28,
            "componentType" : 5126,
            "count" : 2403,
            "type" : "VEC2"
        },
        {
            "bufferView" : 29,
            "componentType" : 5123,
            "count" : 13824,
            "type" : "SCALAR"
        },
        {
            "bufferView" : 30,
            "componentType" : 5126,
            "count" : 6090,
            "max" : [
                0.26702284812927246,
                0.08976038545370102,
                0.2170446217060089
            ],
            "min" : [
                -0.2650632858276367,
                -0.3260640501976013,
                -0.23509281873703003
            ],
            "type" : "VEC3"
        },
        {
            "bufferView" : 31,
            "componentType" : 5126,
            "count" : 6090,
            "type" : "VEC3"
        },
        {
            "bufferView" : 32,
            "componentType" : 5126,
            "count" : 6090,
            "type" : "VEC2"
        },
        {
            "bufferView" : 33,
            "componentType" : 5123,
            "count" : 34560,
            "type" : "SCALAR"
        }
    ],
    "bufferViews" : [
        {
            "buffer" : 0,
            "byteLength" : 48,
            "byteOffset" : 0
        },
        {
            "buffer" : 0,
            "byteLength" : 48,
            "byteOffset" : 48
        },
        {
            "buffer" : 0,
            "byteLength" : 32,
            "byteOffset" : 96
        },
        {
            "buffer" : 0,
            "byteLength" : 12,
            "byteOffset" : 128
        },
        {
            "buffer" : 0,
            "byteLength" : 1272,
            "byteOffset" : 140
        },
        {
            "buffer" : 0,
            "byteLength" : 1272,
            "byteOffset" : 1412
        },
        {
            "buffer" : 0,
            "byteLength" : 848,
            "byteOffset" : 2684
        },
        {
            "buffer" : 0,
            "byteLength" : 288,
            "byteOffset" : 3532
        },
        {
            "buffer" : 0,
            "byteLength" : 8640,
            "byteOffset" : 3820
        },
        {
            "buffer" : 0,
            "byteLength" : 8640,
            "byteOffset" : 12460
        },
        {
            "buffer" : 0,
            "byteLength" : 5760,
            "byteOffset" : 21100
        },
        {
            "buffer" : 0,
            "byteLength" : 1440,
            "byteOffset" : 26860
        },
        {
            "buffer" : 0,
            "byteLength" : 288,
            "byteOffset" : 28300
        },
        {
            "buffer" : 0,
            "byteLength" : 288,
            "byteOffset" : 28588
        },
        {
            "buffer" : 0,
            "byteLength" : 192,
            "byteOffset" : 28876
        },
        {
            "buffer" : 0,
            "byteLength" : 72,
            "byteOffset" : 29068
        },
        {
            "buffer" : 0,
            "byteLength" : 288,
            "byteOffset" : 29140
        },
        {
            "buffer" : 0,
            "byteLength" : 288,
            "byteOffset" : 29428
        },
        {
            "buffer" : 0,
            "byteLength" : 192,
            "byteOffset" : 29716
        },
        {
            "buffer" : 0,
            "byteLength" : 288,
            "byteOffset" : 29908
        },
        {
            "buffer" : 0,
            "byteLength" : 288,
            "byteOffset" : 30196
        },
        {
            "buffer" : 0,
            "byteLength" : 192,
            "byteOffset" : 30484
        },
        {
            "buffer" : 0,
            "byteLength" : 208620,
            "byteOffset" : 30676
        },
        {
            "buffer" : 0,
            "byteLength" : 208620,
            "byteOffset" : 239296
        },
        {
            "buffer" : 0,
            "byteLength" : 139080,
            "byteOffset" : 447916
        },
        {
            "buffer" : 0,
            "byteLength" : 200064,
            "byteOffset" : 586996
        },
        {
            "buffer" : 0,
            "byteLength" : 28836,
            "byteOffset" : 787060
        },
        {
            "buffer" : 0,
            "byteLength" : 28836,
            "byteOffset" : 815896
        },
        {
            "buffer" : 0,
            "byteLength" : 19224,
            "byteOffset" : 844732
        },
        {
            "buffer" : 0,
            "byteLength" : 27648,
            "byteOffset" : 863956
        },
        {
            "buffer" : 0,
            "byteLength" : 73080,
            "byteOffset" : 891604
        },
        {
            "buffer" : 0,
            "byteLength" : 73080,
            "byteOffset" : 964684
        },
        {
            "buffer" : 0,
            "byteLength" : 48720,
            "byteOffset" : 1037764
        },
        {
            "buffer" : 0,
            "byteLength" : 69120,
            "byteOffset" : 1086484
        }
    ],
    "samplers" : [
        {
            "magFilter" : 9729,
            "minFilter" : 9987
        }
    ],
    "buffers" : [
        {
            "byteLength" : 1155604,
            "uri" : "env.bin"
        }
    ]
}
