{
    "asset" : {
        "generator" : "Khronos glTF Blender I/O v1.3.48",
        "version" : "2.0"
    },
    "scene" : 0,
    "scenes" : [
        {
            "name" : "Scene",
            "nodes" : [
                0,
                1,
                2,
                3,
                5,
                6
            ]
        }
    ],
    "nodes" : [
        {
            "mesh" : 0,
            "name" : "Plane",
            "scale" : [
                13.997398376464844,
                13.997398376464844,
                13.997398376464844
            ],
            "translation" : [
                0,
                -1,
                0
            ]
        },
        {
            "mesh" : 1,
            "name" : "Jail.1",
            "scale" : [
                1,
                1,
                2.1087422370910645
            ],
            "translation" : [
                0.7111346125602722,
                0,
                -10.971792221069336
            ]
        },
        {
            "mesh" : 2,
            "name" : "Jail.2",
            "rotation" : [
                0,
                -0.4002913534641266,
                0,
                0.9163879156112671
            ],
            "scale" : [
                1,
                1,
                2.1087422370910645
            ],
            "translation" : [
                -7.920010089874268,
                0,
                9.070016860961914
            ]
        },
        {
            "mesh" : 3,
            "name" : "Jail.3",
            "rotation" : [
                0,
                -0.9239901900291443,
                0,
                0.3824162185192108
            ],
            "scale" : [
                1,
                1,
                2.1087422370910645
            ],
            "translation" : [
                8.025663375854492,
                0,
                9.508888244628906
            ]
        },
        {
            "camera" : 0,
            "name" : "Camera_Orientation",
            "rotation" : [
                -0.7071067690849304,
                0,
                0,
                0.7071067690849304
            ]
        },
        {
            "children" : [
                4
            ],
            "name" : "Camera",
            "rotation" : [
                0.09329719096422195,
                -0.7182526588439941,
                0.6824761033058167,
                0.09815862774848938
            ],
            "translation" : [
                0.6678987741470337,
                0.1708902269601822,
                -6.423677444458008
            ]
        },
        {
            "mesh" : 4,
            "name" : "Memil",
            "rotation" : [
                0.698670506477356,
                0.10890170931816101,
                -0.1089017316699028,
                0.6986703872680664
            ],
            "scale" : [
                0.470173716545105,
                0.470173716545105,
                0.470173716545105
            ],
            "translation" : [
                2.3532445430755615,
                -0.19087925553321838,
                0.09194664657115936
            ]
        }
    ],
    "cameras" : [
        {
            "name" : "Camera",
            "perspective" : {
                "aspectRatio" : 1.7777777777777777,
                "yfov" : 0.39959652046304894,
                "zfar" : 1000,
                "znear" : 0.10000000149011612
            },
            "type" : "perspective"
        }
    ],
    "materials" : [
        {
            "doubleSided" : true,
            "emissiveFactor" : [
                0,
                0,
                0
            ],
            "name" : "Grass",
            "pbrMetallicRoughness" : {
                "baseColorTexture" : {
                    "index" : 0,
                    "texCoord" : 0
                },
                "metallicFactor" : 0,
                "roughnessFactor" : 0.8282442688941956
            }
        },
        {
            "doubleSided" : true,
            "emissiveFactor" : [
                0,
                0,
                0
            ],
            "name" : "Bush",
            "pbrMetallicRoughness" : {
                "baseColorTexture" : {
                    "index" : 1,
                    "texCoord" : 0
                },
                "metallicFactor" : 0,
                "roughnessFactor" : 0.4000000059604645
            }
        },
        {
            "doubleSided" : true,
            "emissiveFactor" : [
                0,
                0,
                0
            ],
            "name" : "Stone",
            "pbrMetallicRoughness" : {
                "baseColorTexture" : {
                    "index" : 2,
                    "texCoord" : 0
                },
                "metallicFactor" : 0,
                "roughnessFactor" : 0.5
            }
        },
        {
            "doubleSided" : true,
            "emissiveFactor" : [
                0,
                0,
                0
            ],
            "name" : "Material",
            "pbrMetallicRoughness" : {
                "baseColorTexture" : {
                    "index" : 3,
                    "texCoord" : 0
                },
                "metallicFactor" : 0,
                "roughnessFactor" : 0.5
            }
        },
        {
            "doubleSided" : true,
            "emissiveFactor" : [
                0,
                0,
                0
            ],
            "name" : "Material.004",
            "pbrMetallicRoughness" : {
                "metallicFactor" : 0,
                "roughnessFactor" : 0.7624434232711792
            }
        },
        {
            "doubleSided" : true,
            "emissiveFactor" : [
                0,
                0,
                0
            ],
            "name" : "eyes",
            "pbrMetallicRoughness" : {
                "baseColorFactor" : [
                    0,
                    0,
                    0,
                    1
                ],
                "metallicFactor" : 0,
                "roughnessFactor" : 0.5
            }
        },
        {
            "doubleSided" : true,
            "emissiveFactor" : [
                0,
                0,
                0
            ],
            "name" : "clothes",
            "pbrMetallicRoughness" : {
                "baseColorTexture" : {
                    "index" : 4,
                    "texCoord" : 0
                },
                "metallicFactor" : 0,
                "roughnessFactor" : 0.5
            }
        }
    ],
    "meshes" : [
        {
            "name" : "Plane",
            "primitives" : [
                {
                    "attributes" : {
                        "POSITION" : 0,
                        "NORMAL" : 1,
                        "TEXCOORD_0" : 2
                    },
                    "indices" : 3,
                    "material" : 0
                },
                {
                    "attributes" : {
                        "POSITION" : 4,
                        "NORMAL" : 5,
                        "TEXCOORD_0" : 6
                    },
                    "indices" : 7,
                    "material" : 1
                },
                {
                    "attributes" : {
                        "POSITION" : 8,
                        "NORMAL" : 9,
                        "TEXCOORD_0" : 10
                    },
                    "indices" : 11,
                    "material" : 2
                }
            ]
        },
        {
            "name" : "Cube",
            "primitives" : [
                {
                    "attributes" : {
                        "POSITION" : 12,
                        "NORMAL" : 13,
                        "TEXCOORD_0" : 14
                    },
                    "indices" : 15,
                    "material" : 3
                }
            ]
        },
        {
            "name" : "Cube.005",
            "primitives" : [
                {
                    "attributes" : {
                        "POSITION" : 16,
                        "NORMAL" : 17,
                        "TEXCOORD_0" : 18
                    },
                    "indices" : 15,
                    "material" : 3
                }
            ]
        },
        {
            "name" : "Cube.006",
            "primitives" : [
                {
                    "attributes" : {
                        "POSITION" : 19,
                        "NORMAL" : 20,
                        "TEXCOORD_0" : 21
                    },
                    "indices" : 15,
                    "material" : 3
                }
            ]
        },
        {
            "name" : "Roundcube.001",
            "primitives" : [
                {
                    "attributes" : {
                        "POSITION" : 22,
                        "NORMAL" : 23,
                        "TEXCOORD_0" : 24
                    },
                    "indices" : 25,
                    "material" : 4
                },
                {
                    "attributes" : {
                        "POSITION" : 26,
                        "NORMAL" : 27,
                        "TEXCOORD_0" : 28
                    },
                    "indices" : 29,
                    "material" : 5
                },
                {
                    "attributes" : {
                        "POSITION" : 30,
                        "NORMAL" : 31,
                        "TEXCOORD_0" : 32
                    },
                    "indices" : 33,
                    "material" : 6
                }
            ]
        }
    ],
    "textures" : [
        {
            "source" : 0
        },
        {
            "source" : 1
        },
        {
            "source" : 2
        },
        {
            "source" : 3
        },
        {
            "source" : 4
        }
    ],
    "images" : [
        {
            "mimeType" : "image/jpeg",
            "name" : "grass",
            "uri" : "Textures/grass.jpg"
        },
        {
            "mimeType" : "image/jpeg",
            "name" : "bush",
            "uri" : "Textures/bush.jpg"
        },
        {
            "mimeType" : "image/jpeg",
            "name" : "stone",
            "uri" : "Textures/stone.jpg"
        },
        {
            "mimeType" : "image/jpeg",
            "name" : "jail",
            "uri" : "Textures/jail.jpg"
        },
        {
            "mimeType" : "image/jpeg",
            "name" : "cloth",
            "uri" : "Textures/cloth.jpg"
        }
    ],
    "accessors" : [
        {
            "bufferView" : 0,
            "componentType" : 5126,
            "count" : 4,
            "max" : [
                1,
                0,
                1
            ],
            "min" : [
                -1,
                0,
                -1
            ],
            "type" : "VEC3"
        },
        {
            "bufferView" : 1,
            "componentType" : 5126,
            "count" : 4,
            "type" : "VEC3"
        },
        {
            "bufferView" : 2,
            "componentType" : 5126,
            "count" : 4,
            "type" : "VEC2"
        },
        {
            "bufferView" : 3,
            "componentType" : 5123,
            "count" : 6,
            "type" : "SCALAR"
        },
        {
            "bufferView" : 4,
            "componentType" : 5126,
            "count" : 96,
            "max" : [
                1.0747636556625366,
                0.24269245564937592,
                1.1307495832443237
            ],
            "min" : [
                -1.1165688037872314,
                -0.02530612051486969,
                -1.1267741918563843
            ],
            "type" : "VEC3"
        },
        {
            "bufferView" : 5,
            "componentType" : 5126,
            "count" : 96,
            "type" : "VEC3"
        },
        {
            "bufferView" : 6,
            "componentType" : 5126,
            "count" : 96,
            "type" : "VEC2"
        },
        {
            "bufferView" : 7,
            "componentType" : 5123,
            "count" : 144,
            "type" : "SCALAR"
        },
        {
            "bufferView" : 8,
            "componentType" : 5126,
            "count" : 720,
            "max" : [
                0.6878488063812256,
                0.16484704613685608,
                0.9055821299552917
            ],
            "min" : [
                -0.7984398603439331,
                -0.14061570167541504,
                -0.9375165700912476
            ],
            "type" : "VEC3"
        },
        {
            "bufferView" : 9,
            "componentType" : 5126,
            "count" : 720,
            "type" : "VEC3"
        },
        {
            "bufferView" : 10,
            "componentType" : 5126,
            "count" : 720,
            "type" : "VEC2"
        },
        {
            "bufferView" : 11,
            "componentType" : 5123,
            "count" : 720,
            "type" : "SCALAR"
        },
        {
            "bufferView" : 12,
            "componentType" : 5126,
            "count" : 24,
            "max" : [
                1,
                1,
                1
            ],
            "min" : [
                -1,
                -1,
                -1
            ],
            "type" : "VEC3"
        },
        {
            "bufferView" : 13,
            "componentType" : 5126,
            "count" : 24,
            "type" : "VEC3"
        },
        {
            "bufferView" : 14,
            "componentType" : 5126,
            "count" : 24,
            "type" : "VEC2"
        },
        {
            "bufferView" : 15,
            "componentType" : 5123,
            "count" : 36,
            "type" : "SCALAR"
        },
        {
            "bufferView" : 16,
            "componentType" : 5126,
            "count" : 24,
            "max" : [
                1,
                1,
                1
            ],
            "min" : [
                -1,
                -1,
                -1
            ],
            "type" : "VEC3"
        },
        {
            "bufferView" : 17,
            "componentType" : 5126,
            "count" : 24,
            "type" : "VEC3"
        },
        {
            "bufferView" : 18,
            "componentType" : 5126,
            "count" : 24,
            "type" : "VEC2"
        },
        {
            "bufferView" : 19,
            "componentType" : 5126,
            "count" : 24,
            "max" : [
                1,
                1,
                1
            ],
            "min" : [
                -1,
                -1,
                -1
            ],
            "type" : "VEC3"
        },
        {
            "bufferView" : 20,
            "componentType" : 5126,
            "count" : 24,
            "type" : "VEC3"
        },
        {
            "bufferView" : 21,
            "componentType" : 5126,
            "count" : 24,
            "type" : "VEC2"
        },
        {
            "bufferView" : 22,
            "componentType" : 5126,
            "count" : 17385,
            "max" : [
                1.051923394203186,
                0.3692152202129364,
                1.7587095499038696
            ],
            "min" : [
                -1.0475436449050903,
                -0.43008479475975037,
                -1.1196004152297974
            ],
            "type" : "VEC3"
        },
        {
            "bufferView" : 23,
            "componentType" : 5126,
            "count" : 17385,
            "type" : "VEC3"
        },
        {
            "bufferView" : 24,
            "componentType" : 5126,
            "count" : 17385,
            "type" : "VEC2"
        },
        {
            "bufferView" : 25,
            "componentType" : 5123,
            "count" : 100032,
            "type" : "SCALAR"
        },
        {
            "bufferView" : 26,
            "componentType" : 5126,
            "count" : 2403,
            "max" : [
                0.2061823606491089,
                0.3961262106895447,
                -0.394106388092041
            ],
            "min" : [
                -0.2655075788497925,
                0.19109518826007843,
                -0.6761183738708496
            ],
            "type" : "VEC3"
        },
        {
            "bufferView" : 27,
            "componentType" : 5126,
            "count" : 2403,
            "type" : "VEC3"
        },
        {
            "bufferView" : 28,
            "componentType" : 5126,
            "count" : 2403,
            "type" : "VEC2"
        },
        {
            "bufferView" : 29,
            "componentType" : 5123,
            "count" : 13824,
            "type" : "SCALAR"
        },
        {
            "bufferView" : 30,
            "componentType" : 5126,
            "count" : 6090,
            "max" : [
                0.5680303573608398,
                0.45999622344970703,
                0.7055546045303345
            ],
            "min" : [
                -0.5636496543884277,
                -0.5016428232192993,
                -0.1788514256477356
            ],
            "type" : "VEC3"
        },
        {
            "bufferView" : 31,
            "componentType" : 5126,
            "count" : 6090,
            "type" : "VEC3"
        },
        {
            "bufferView" : 32,
            "componentType" : 5126,
            "count" : 6090,
            "type" : "VEC2"
        },
        {
            "bufferView" : 33,
            "componentType" : 5123,
            "count" : 34560,
            "type" : "SCALAR"
        }
    ],
    "bufferViews" : [
        {
            "buffer" : 0,
            "byteLength" : 48,
            "byteOffset" : 0
        },
        {
            "buffer" : 0,
            "byteLength" : 48,
            "byteOffset" : 48
        },
        {
            "buffer" : 0,
            "byteLength" : 32,
            "byteOffset" : 96
        },
        {
            "buffer" : 0,
            "byteLength" : 12,
            "byteOffset" : 128
        },
        {
            "buffer" : 0,
            "byteLength" : 1152,
            "byteOffset" : 140
        },
        {
            "buffer" : 0,
            "byteLength" : 1152,
            "byteOffset" : 1292
        },
        {
            "buffer" : 0,
            "byteLength" : 768,
            "byteOffset" : 2444
        },
        {
            "buffer" : 0,
            "byteLength" : 288,
            "byteOffset" : 3212
        },
        {
            "buffer" : 0,
            "byteLength" : 8640,
            "byteOffset" : 3500
        },
        {
            "buffer" : 0,
            "byteLength" : 8640,
            "byteOffset" : 12140
        },
        {
            "buffer" : 0,
            "byteLength" : 5760,
            "byteOffset" : 20780
        },
        {
            "buffer" : 0,
            "byteLength" : 1440,
            "byteOffset" : 26540
        },
        {
            "buffer" : 0,
            "byteLength" : 288,
            "byteOffset" : 27980
        },
        {
            "buffer" : 0,
            "byteLength" : 288,
            "byteOffset" : 28268
        },
        {
            "buffer" : 0,
            "byteLength" : 192,
            "byteOffset" : 28556
        },
        {
            "buffer" : 0,
            "byteLength" : 72,
            "byteOffset" : 28748
        },
        {
            "buffer" : 0,
            "byteLength" : 288,
            "byteOffset" : 28820
        },
        {
            "buffer" : 0,
            "byteLength" : 288,
            "byteOffset" : 29108
        },
        {
            "buffer" : 0,
            "byteLength" : 192,
            "byteOffset" : 29396
        },
        {
            "buffer" : 0,
            "byteLength" : 288,
            "byteOffset" : 29588
        },
        {
            "buffer" : 0,
            "byteLength" : 288,
            "byteOffset" : 29876
        },
        {
            "buffer" : 0,
            "byteLength" : 192,
            "byteOffset" : 30164
        },
        {
            "buffer" : 0,
            "byteLength" : 208620,
            "byteOffset" : 30356
        },
        {
            "buffer" : 0,
            "byteLength" : 208620,
            "byteOffset" : 238976
        },
        {
            "buffer" : 0,
            "byteLength" : 139080,
            "byteOffset" : 447596
        },
        {
            "buffer" : 0,
            "byteLength" : 200064,
            "byteOffset" : 586676
        },
        {
            "buffer" : 0,
            "byteLength" : 28836,
            "byteOffset" : 786740
        },
        {
            "buffer" : 0,
            "byteLength" : 28836,
            "byteOffset" : 815576
        },
        {
            "buffer" : 0,
            "byteLength" : 19224,
            "byteOffset" : 844412
        },
        {
            "buffer" : 0,
            "byteLength" : 27648,
            "byteOffset" : 863636
        },
        {
            "buffer" : 0,
            "byteLength" : 73080,
            "byteOffset" : 891284
        },
        {
            "buffer" : 0,
            "byteLength" : 73080,
            "byteOffset" : 964364
        },
        {
            "buffer" : 0,
            "byteLength" : 48720,
            "byteOffset" : 1037444
        },
        {
            "buffer" : 0,
            "byteLength" : 69120,
            "byteOffset" : 1086164
        }
    ],
    "buffers" : [
        {
            "byteLength" : 1155284,
            "uri" : "env.bin"
        }
    ]
}
